<?xml version="1.0" encoding="UTF-8"?>
<svg id="Layer_1" xmlns="http://www.w3.org/2000/svg" version="1.1" viewBox="0 0 691 266">
  <!-- Generator: Adobe Illustrator 29.1.0, SVG Export Plug-In . SVG Version: 2.1.0 Build 142)  -->
  <defs>
    <style>
      .st0 {
        fill: #fff;
      }
    </style>
  </defs>
  <path class="st0" d="M63.2,99.5v47.3c0,8.1.4,14,1.3,17.8.9,3.8,2.5,7,5,9.7,2.1,2.3,4.6,4,7.5,5,2.9,1.1,6.6,1.7,11.1,2v2.7H12.4v-2.7c3.8,0,7.4-.6,10.8-1.8,3.4-1.2,6-2.9,7.9-4.9,2.2-2.4,3.8-5.8,4.7-10.1.9-4.3,1.4-10.1,1.4-17.6V59.4c0-5.1-.3-10.3-.8-15.8-.8-6.9-4.2-12.1-10.2-15.5-3.3-1.8-7.9-2.9-13.9-3.2v-2.7h123.8l3.4,38.5-2.7.6c-2-6-3.8-10.5-5.4-13.5-3.7-6.9-8.9-12.2-15.6-16-3.9-2.2-8.3-3.8-13.4-4.6-5.1-.9-12-1.3-20.8-1.3h-18.4v69.9h4.7c14,0,24.1-3.1,30.4-9.4,2.8-2.7,4.9-5.9,6.3-9.5,1.4-3.7,2.4-8.5,2.8-14.4h2.7c0,.1-.7,71.9-.7,71.9h-2.8c-.9-8.1-2.4-14.3-4.4-18.7-2.1-4.4-5.3-7.9-9.5-10.6-3.2-2-7-3.4-11.7-4.3-4.6-.9-10.6-1.4-17.8-1.4"/>
  <path class="st0" d="M226.2,22.2v2.7c-4.5.2-8.2.9-11,1.9-2.8,1-5.3,2.7-7.5,5-3.1,3.2-5,7.5-5.7,13.1-.5,4.2-.7,9-.7,14.4v87.3c0,6.6.3,11.7.9,15.5.6,3.8,1.7,6.8,3.1,9.1,2.1,3.2,4.7,5.5,7.9,7,3.2,1.5,7.5,2.5,12.9,2.8v2.7h-75.7v-2.7c4.6-.2,8.3-.9,11.1-2,2.8-1.1,5.3-2.7,7.4-4.9,2.5-2.5,4.2-5.7,5.1-9.6.9-3.9,1.3-9.9,1.3-18V59.4c0-8.1-.4-14.1-1.3-18-.9-3.9-2.6-7.1-5.1-9.6-2.1-2.3-4.6-3.9-7.5-5-2.8-1-6.5-1.7-11-1.9v-2.7h75.7Z"/>
  <path class="st0" d="M249.4,104.1c0-13.3,2.8-25.6,8.5-36.9,5.7-11.3,14-21.2,24.9-29.7,8.1-6.2,16.9-11,26.3-14.4,9.4-3.4,18.9-5,28.4-5s23.9,2.7,35.3,8c11.4,5.3,21.3,12.9,29.8,22.6,13.9,15.8,20.8,33.8,20.8,53.9s-1.8,19.9-5.4,29.3c-3.6,9.4-8.9,18-15.9,25.7-8.5,9.6-18.6,17.1-30.3,22.4-11.6,5.3-23.8,7.9-36.5,7.9s-24.6-2.6-36-7.7c-11.4-5.1-21.3-12.4-29.6-21.8-6.6-7.3-11.6-15.7-15.1-25.1-3.5-9.4-5.3-19.1-5.3-29.2M278.1,105.9c0,22.9,6.2,42.2,18.7,58,5.6,7,11.5,12.1,17.8,15.3,6.3,3.2,13.5,4.8,21.7,4.8s15.6-1.6,21.9-4.7c6.3-3.2,12.3-8.3,17.9-15.4,12.5-15.8,18.7-35.3,18.7-58.4s-1.7-24.8-5.2-36.1c-3.4-11.3-8.3-21-14.5-28.9-5.1-6.5-10.7-11.2-16.9-14.2-6.2-3-13.5-4.4-22-4.4s-15.6,1.5-21.7,4.4c-6.1,2.9-11.8,7.7-17,14.2-6.2,7.8-11.1,17.4-14.4,28.8-3.4,11.4-5.1,23.6-5.1,36.6"/>
  <path class="st0" d="M497.5,104.8v41.9c0,8.1.5,14,1.4,17.9.9,3.9,2.6,7.1,5,9.7,2.1,2.2,4.6,3.9,7.4,4.9,2.8,1.1,6.5,1.7,11.1,2v2.7h-75.7v-2.7c4.6-.2,8.3-.9,11.1-2,2.8-1.1,5.3-2.7,7.4-4.9,2.5-2.5,4.2-5.7,5.1-9.6.9-3.9,1.3-9.9,1.3-18V59.4c0-8.1-.4-14.1-1.3-18-.9-3.9-2.6-7.1-5.1-9.6-2.1-2.3-4.6-3.9-7.5-5-2.8-1-6.5-1.7-11-1.9v-2.7h57.1c9.6,0,15.8,0,18.8.1,12.2.6,21.8,2.2,28.8,5,7.8,3.2,13.9,7.9,18.2,14.2,4.3,6.3,6.5,13.6,6.5,21.9,0,12.3-4.7,22.2-14,29.6-2.8,2.2-6,4-9.4,5.4-3.4,1.4-8,2.8-13.8,4,4.7,2,8.2,4,10.5,6.2,1.8,1.7,3.5,3.7,5,6.2,1.5,2.5,3.7,6.9,6.8,13.2,7,14.5,12.3,25,15.9,31.7,3.6,6.7,6.6,11.5,9.1,14.5,2,2.4,3.9,4.1,5.7,5.1,1.9.9,4.4,1.6,7.6,1.9v2.7h-39.3c-2-4.3-3.2-7.1-3.8-8.3l-8.3-18.8c-5-11.3-10-21.3-15-30-5.1-8.6-9.7-14.5-13.9-17.6-2.1-1.6-4.4-2.7-6.9-3.4-2.4-.7-5.4-1-9-1h-5.8ZM497.5,102.2h4.5c9.8,0,16.8-.6,21-1.7,4.2-1.1,8.2-3.4,11.9-6.9,8.3-7.9,12.4-17.7,12.4-29.4s-1.2-12.1-3.6-17.6c-2.4-5.5-5.7-10-10-13.6-3.3-2.7-7.3-4.6-11.8-5.6-4.6-1.1-11.1-1.6-19.5-1.6h-4.9v76.3Z"/>
  <path class="st0" d="M685.4,22.2v2.7c-4.5.2-8.2.9-11,1.9-2.8,1-5.3,2.7-7.5,5-3.1,3.2-5,7.5-5.7,13.1-.5,4.2-.7,9-.7,14.4v87.3c0,6.6.3,11.7.9,15.5.6,3.8,1.7,6.8,3.1,9.1,2.1,3.2,4.7,5.5,7.9,7,3.2,1.5,7.5,2.5,12.9,2.8v2.7h-75.7v-2.7c4.6-.2,8.3-.9,11.1-2,2.8-1.1,5.3-2.7,7.4-4.9,2.5-2.5,4.2-5.7,5.1-9.6.9-3.9,1.3-9.9,1.3-18V59.4c0-8.1-.4-14.1-1.3-18-.9-3.9-2.6-7.1-5.1-9.6-2.1-2.3-4.6-3.9-7.5-5-2.8-1-6.5-1.7-11-1.9v-2.7h75.7Z"/>
  <path class="st0" d="M223.1,245.5l1-1.7c2.2,2.3,6.2,4,10.5,4,6.4,0,9.2-2.8,9.2-6.2,0-9.6-19.9-3.8-19.9-15.6s3.5-8.5,11.3-8.5,7.2,1.1,9.6,2.9l-.9,1.9c-2.6-1.8-5.9-2.7-8.8-2.7-6.2,0-9,2.9-9,6.4,0,9.6,19.9,3.9,19.9,15.5s-3.6,8.4-11.5,8.4-9.3-1.8-11.6-4.3"/>
  <rect class="st0" x="254.1" y="217.6" width="2.3" height="31.9"/>
  <polygon class="st0" points="293.6 217.6 293.6 249.6 291.7 249.6 269.9 221.8 269.9 249.6 267.6 249.6 267.6 217.6 269.5 217.6 291.3 245.4 291.3 217.6 293.6 217.6"/>
  <path class="st0" d="M301.6,233.6c0-9.3,7.1-16.2,16.6-16.2s8.6,1.5,11.4,4.4l-1.5,1.5c-2.7-2.7-6.1-3.8-9.8-3.8-8.2,0-14.3,6-14.3,14s6.2,14,14.3,14,7.1-1.1,9.8-3.8l1.5,1.5c-2.8,3-6.8,4.5-11.4,4.5-9.5,0-16.6-6.9-16.6-16.2"/>
  <polygon class="st0" points="359.4 247.5 359.4 249.6 337.4 249.6 337.4 217.6 358.7 217.6 358.7 219.7 339.7 219.7 339.7 232.3 356.7 232.3 356.7 234.4 339.7 234.4 339.7 247.5 359.4 247.5"/>
  <path class="st0" d="M397.8,247.5v2.1h-21.9v-1.6l13.5-13.4c3.8-3.8,4.5-6,4.5-8.4,0-4-2.8-6.5-8.1-6.5s-7,1.2-9.2,3.7l-1.6-1.5c2.4-2.8,6.2-4.4,11-4.4s10.3,3.2,10.3,8.4-1,5.7-5.2,9.9l-11.8,11.7h18.5Z"/>
  <path class="st0" d="M402,233.6c0-10,5.2-16.2,12.5-16.2s12.5,6.2,12.5,16.2-5.2,16.2-12.5,16.2-12.5-6.2-12.5-16.2M424.7,233.6c0-8.9-4.1-14-10.2-14s-10.2,5.2-10.2,14,4.2,14,10.2,14,10.2-5.2,10.2-14"/>
  <polygon class="st0" points="440 217.6 440 249.6 437.7 249.6 437.7 219.7 429.9 219.7 429.9 217.6 440 217.6"/>
  <polygon class="st0" points="474.7 240.7 468 240.7 468 249.6 465.7 249.6 465.7 240.7 447.5 240.7 447.5 239 464.9 217.6 467.5 217.6 450.5 238.7 465.8 238.7 465.8 230.9 468 230.9 468 238.7 474.7 238.7 474.7 240.7"/>
</svg>